<?xml version="1.0" encoding="UTF-8"?>
<svg version="1.1" viewBox="0 0 2048 2048" width="150" height="150" xmlns="http://www.w3.org/2000/svg">
<path transform="translate(1014,466)" d="m0 0h14l33 2 27 4 20 5 24 8 21 9 20 11 23 15 19 14 13 11 10 9 8 8 7 8 14 18 11 17 11 19 11 22 7 19 3 11 1 10-1 2-14 3-32 3-67 3-15 1v2l74 1 26 1 27 3 5 2 4 11 1 6-4 1h-2l8 8 3 9 2 17v19l-4 35-5 25-8 28-6 15-11 23-11 19-10 16-4 7 2 14-4 4-30-2-73-3-112-2-7-1-3-4v-49l3-109 1-14 2-7 6-2 19-2 23-2 13-3 5-4 3-11v-12l-4-6-9-2-25-2h-19l-5-3 1-5 12-14 3-7v-8l-5-14-7-11-10-13-8-8-8-4-10-1-11 4-15 14-10 12-6 12-2 7v9l4 12 7 15v3l-11 1-33 1-3 1-5 8-2 7-2 19 13 2 28 1 17 2 7 3 3 5 2 11 2 52 1 34 1 55v21l-3 5-4 2-23 1-89 2-62 2-19 1h-24l4-7 4-5-2-6-11-17-12-21-12-25-7-20-7-26-2-12-1-21 2-10 7-5 5-2 12-1 36-1 33-2v-2l-22 1h-54l-11-2-5-5-3-7-2-13v-12l3-35 5-23 7-19 9-21 11-22 7-11 9-12 11-11 9-12 10-16 12-14 15-15 14-11 26-17 26-14 16-8 17-6 21-5 25-3z" fill="#FCCE49"/>
<path transform="translate(544,1332)" d="m0 0h45l48 2 36 3 40 6 26 6 40 12 39 15 24 11 12 6 19 11 18 13 17 14 8 7 15 15 14 20 9 16 12 19 8 9 10 7 13 6 16 4 8 1h11l12-2 16-6 11-7 7-7 10-17 10-19 12-16 9-10 18-18 11-9 13-10 20-13 18-10 19-10 28-12 23-9 37-12 29-6 34-5 33-3 40-2h88l45 3 38 4 37 5 37 6 52 10 48 11 39 11 23 7 12 6 5 6v7l-10 21-5 5h-9l-30-5-114-23-64-11-32-4-20-2-51-3-25-1h-60l-47 3-36 4-27 5-32 8-36 12-21 8-20 9-19 10-11 7-15 10-13 10-10 9-10 15-12 19-10 14-12 16-12 14-11 10-11 7-10 5-15 4-13 2-23 1-19-2-15-4-17-7-16-10-15-14-11-12-11-16-8-13-12-22-11-13-13-11-20-12-27-14-21-10-26-10-24-8-33-9-29-6-29-4-27-2-49-2h-62l-49 2-40 3-32 4-65 12-46 10-58 12-36 6-6-1-5-8-5-14v-10l2-7 5-4 15-6 60-15 70-15 59-11 37-5 40-4 37-2z" fill="#EEE160"/>
<path transform="translate(522,1224)" d="m0 0h40l40 2 43 4 39 6 33 8 31 9 22 8 20 9 24 11 27 14 13 8 15 9 15 11 11 9 10 9 13 11 10 9 12 11 14 14 7 8 10 14 3 8v3l-5-1-9-6-16-13-14-11-18-14-13-9-19-12-25-14-21-10-26-11-30-11-36-11-40-9-31-5-23-3-54-4h-86l-47 3-42 5-48 8-105 22-34 6-14 1 1-5 12-22 11-14 7-7 12-7 16-6 41-11 40-8 38-6 46-5 35-3z" fill="#EEE261"/>
<path transform="translate(1486,1224)" d="m0 0h46l49 3 49 5 44 6 54 10 31 7 26 7 9 4 8 6 11 16 11 18 5 11v4l-9-1-41-9-47-10-42-8-39-6-60-7-46-4-18-1h-61l-51 3-40 4-32 5-28 6-26 7-36 12-28 11-26 12-16 8-21 11-18 12-10 7-19 14-17 12-7 3-3-1 6-12 7-9 9-10 9-9h2v-2l8-7 10-9 8-7 12-11 17-13 40-24 22-11 29-13 33-12 36-10 36-8 27-4 44-4z" fill="#EEE261"/>
<path transform="translate(524,1132)" d="m0 0h25l47 2 40 3 32 4 36 7 35 8 31 9 30 10 28 12 19 10 20 11 24 15 16 12 10 9 12 11 8 7 19 19 8 7 13 13 6 8 11 21 5 11 1 6-5-2-14-14-11-9-12-11-9-7-14-11-15-10-19-12-16-9-20-11-23-11-32-14-37-13-30-8-41-8-48-7-39-4-33-2h-61l-47 3-57 6-33 4h-7l2-6 15-22 11-14 10-12 7-5 11-2 31-2z" fill="#EEE261"/>
<path transform="translate(1493,1132)" d="m0 0h65l44 3 18 2 8 3 6 4 9 11 15 25 3 7v6l-7 1-27-1-38-4-37-4-18-1h-76l-44 3-34 4-50 8-30 6-30 8-27 9-18 7-21 9-50 25-20 12-19 14-15 11-13 10-15 13-8 7-4 5-8 7-2 3h-2l3-9 6-11 10-14 11-14 12-14 7-8 12-13 11-10 11-9 15-12 25-16 15-9 16-9 27-13 36-14 34-11 24-6 41-8 47-7 43-4z" fill="#EEE261"/>
<path transform="translate(1320,735)" d="m0 0h2l3 13 1 11v19l-4 35-5 25-8 28-6 15-11 23-11 19-10 16-4 7 2 14-4 4-30-2-73-3-112-2-7-1-3-4v-49h1l1 19 4 13 4 10 5 3 10 1 22 1 77 1 56 2 16-1 9-3 8-3 4-4h2l2-4 5-4 5-7 4-4 9-16 8-15 6-15 5-12 5-17 4-15 5-37 4-21 1-11v-18l-3-5-1-2z" fill="#EEE261"/>
<path transform="translate(1e3 788)" d="m0 0h1l2 52 1 34 1 55v21l-3 5-4 2-23 1-89 2-62 2-19 1h-24l4-7 4-5-2-6-11-17-12-21-12-25-7-20-2-6 1-4 6 16v4h2l4 9 8 16 5 7v2h2l5 9 10 14 6 5 10 13 6 4 10 2 44 1 55-2 74-2 6-2 3-6 1-10 1-34-1-12v-17l-1-22-1-51z" fill="#EEE261"/>
<path transform="translate(1109,478)" d="m0 0 12 3 25 10 16 8 14 8 22 14 18 14 11 9 12 11 7 7 7 8 14 18 11 17 11 19 11 22 4 10-1 3-2-5h-2l-11-18-4-5v-3h-2l-7-10-8-9v-2h-2l-8-12-2-4h-2l-6-9-5-6v-2h-2l-7-8-10-10v-2l-4-2-5-5-1-3-11-7-7-7-10-8v-2h-2v-2l-5-2-10-6-12-6-11-8v-2l-6-1-14-7-15-6z" fill="#EEE261"/>
<path transform="translate(884,502)" d="m0 0 1 2-11 8-7 6-5 2-2 4h-2v2h-2l-2 4-9 9-1 2h-2v2h-2v2l-8 7-6 8-3 6 1 6 6 4 1 3 3 1 19 1 9 2 2 1v3l-7 3h-36l-24-2 2-4 7-10 10-15 11-13 15-15 14-11 26-17z" fill="#EEE160"/>
<path transform="translate(793,591)" d="m0 0 1 3-2 1 1 10-8 15-11 16-13 23-15 35-4 11-3 12-2 17-2 3v-10l3-26 5-20 6-16 9-21 11-22 7-11 9-12z" fill="#EEE261"/>
<path transform="translate(993,1255)" d="m0 0 4 2 2 4v8l-3 6v21l-2 5-3 1-11-3-6-5-3-12v-14l6-7 11-5z" fill="#EEE261"/>
<path transform="translate(1049,1219)" d="m0 0 12 3 9 5 4 5v6l-10 16-8 5h-6l-2-4-1-7v-27z" fill="#EEE262"/>
<path transform="translate(1251,691)" d="m0 0h38v1l-25 2-67 3-15 1v2l74 1 26 1 27 3 5 2 4 11 1 6-4 1h-3l-2-1-3-8-10-8-3-2-51-3-68-1-3-2 1-4 19-2z" fill="#EEE261"/>
<path transform="translate(831,780)" d="m0 0 1 2h45l-1 3-5 2-38 2-28 1-63 1 3-3 5-2 12-1 36-1 33-2z" fill="#EEE261"/>
<path transform="translate(1053,1149)" d="m0 0 8 1 5 5 1 6-2 12-4 4-9 1-4-6-2-7v-7l3-6z" fill="#EEE261"/>
<path transform="translate(983,1119)" d="m0 0h12l4 4v13l-4 6-1 1-9-1-6-4-2-3v-7l3-7z" fill="#EEE261"/>
<path transform="translate(1312,725)" d="m0 0 7 6 1 2h-29l-43-3-8-1 1-2z" fill="#EEE261"/>
<path transform="translate(979,707)" d="m0 0 3 4 6 13v3l-11 1-33 1-3 1-4 6-1-2 4-6 7-4 14-2 7-4 7-2 2-6h2z" fill="#EEE261"/>
<path transform="translate(980,1197)" d="m0 0h14l3 2 1 7-2 5-7 1-10-2-4-3 1-7z" fill="#EEE261"/>
<path transform="translate(1294,704)" d="m0 0h8l11 2 4 8 2 10-4 1h-3l-2-1-3-8-10-8-3-2z" fill="#EEE261"/>
<path transform="translate(738,771)" d="m0 0 18 4 6 2 10 2 37 1v1h-54l-11-2-5-5z" fill="#EEE261"/>
<path transform="translate(1056,717)" d="m0 0 5 3 14 4 14 2v1h-31l-5-3 1-5z" fill="#EEE261"/>
<path transform="translate(1302,706)" d="m0 0h11l4 8v5l-3 2-1-3h-2l-4-6-5-4z" fill="#FAD04C"/>
<path transform="translate(990,1332)" d="m0 0 6 2 4 10v3l-5-2-10-10 1-2 4 1z" fill="#FDFDFD"/>
<path transform="translate(994,1075)" d="m0 0h5l2 2v7l-2 2-6-1-2-2 1-6z" fill="#FDFDFD"/>
<path transform="translate(1060,668)" d="m0 0h2l9 11 3 4v3l-2 2-3 2-5-14z" fill="#EEE160"/>
<path transform="translate(1833,1402)" d="m0 0h1l-1 7-5 6-9 3-9-1 1-2h9l6-4 3-3h3z" fill="#FDCE49"/>
<path transform="translate(979,674)" d="m0 0h2l-3 10-2 13h-1l-1-12z" fill="#F0DF5D"/>
<path transform="translate(1530,1377)" d="m0 0 13 1 2 2h-12l-5-1z" fill="#FDCE49"/>
</svg>
